<svg
   xmlns:dc="http://purl.org/dc/elements/1.1/"
   xmlns:cc="http://creativecommons.org/ns#"
   xmlns:rdf="http://www.w3.org/1999/02/22-rdf-syntax-ns#"
   xmlns:svg="http://www.w3.org/2000/svg"
   xmlns="http://www.w3.org/2000/svg"
   xmlns:sodipodi="http://sodipodi.sourceforge.net/DTD/sodipodi-0.dtd"
   xmlns:inkscape="http://www.inkscape.org/namespaces/inkscape"
   viewBox="0 0 1443.3859 1435"
   width="1443.3859"
   height="1435"
   version="1.1"
   id="svg2"
   inkscape:version="0.91 r13725"
   sodipodi:docname="gross-emoji-doodle.svg">
  <metadata
     id="metadata11">
    <rdf:RDF>
      <cc:Work
         rdf:about="">
        <dc:format>image/svg+xml</dc:format>
        <dc:type
           rdf:resource="http://purl.org/dc/dcmitype/StillImage" />
        <dc:title></dc:title>
      </cc:Work>
    </rdf:RDF>
  </metadata>
  <sodipodi:namedview
     pagecolor="#ffffff"
     bordercolor="#666666"
     borderopacity="1"
     objecttolerance="10"
     gridtolerance="10"
     guidetolerance="10"
     inkscape:pageopacity="0"
     inkscape:pageshadow="2"
     inkscape:window-width="1916"
     inkscape:window-height="1035"
     id="namedview9"
     showgrid="false"
     fit-margin-top="0"
     fit-margin-left="0"
     fit-margin-right="0"
     fit-margin-bottom="0"
     inkscape:zoom="0.30249377"
     inkscape:cx="959.2852"
     inkscape:cy="1260.9786"
     inkscape:window-x="4"
     inkscape:window-y="1"
     inkscape:window-maximized="1"
     inkscape:current-layer="svg2" />
  <defs
     id="defs4">
    <filter
       inkscape:collect="always"
       style="color-interpolation-filters:sRGB"
       id="filter4184"
       x="-0.14017978"
       width="1.2803596"
       y="-0.089434862"
       height="1.1788697">
      <feGaussianBlur
         inkscape:collect="always"
         stdDeviation="32.637214"
         id="feGaussianBlur4186" />
    </filter>
    <filter
       inkscape:collect="always"
       style="color-interpolation-filters:sRGB"
       id="filter4262"
       x="-0.1595722"
       width="1.3191444"
       y="-0.096154667"
       height="1.1923093">
      <feGaussianBlur
         inkscape:collect="always"
         stdDeviation="23.227298"
         id="feGaussianBlur4264" />
    </filter>
    <filter
       inkscape:collect="always"
       style="color-interpolation-filters:sRGB"
       id="filter4311"
       x="-0.30970472"
       width="1.6194094"
       y="-0.086802691"
       height="1.1736054">
      <feGaussianBlur
         inkscape:collect="always"
         stdDeviation="20.126749"
         id="feGaussianBlur4313" />
    </filter>
    <filter
       inkscape:collect="always"
       style="color-interpolation-filters:sRGB"
       id="filter4344"
       x="-0.14703678"
       width="1.2940735"
       y="-0.045590047"
       height="1.0911801">
      <feGaussianBlur
         inkscape:collect="always"
         stdDeviation="10.606822"
         id="feGaussianBlur4346" />
    </filter>
  </defs>
  <g
     id="g4348"
     transform="translate(-623.31333,5.6520979)">
    <path
       sodipodi:nodetypes="ccccccccccccccccccccccc"
       inkscape:connector-curvature="0"
       id="path4139"
       d="M 1120.6842,68.070906 975.22671,137.49382 740.51113,471.385 c -20.29591,134.61234 -63.02162,266.9817 0,409.9258 28.69401,92.32973 61.46473,179.9033 142.15168,211.5746 l 204.96289,95.8698 72.7288,19.8351 181.8219,16.5292 214.8805,6.6117 211.5746,-102.4814 148.7634,-132.23413 89.258,-231.40973 13.2234,-165.29266 -56.1995,-171.90437 -109.0931,-191.73949 -102.4815,-85.95218 -142.1517,-56.199508 -105.7873,-13.223413 -85.9522,-13.223413 -69.4229,-9.91756 -128.9283,0 -69.4229,13.223413 z"
       style="fill:#fbdc16;fill-opacity:1;fill-rule:evenodd;stroke:none;stroke-width:1px;stroke-linecap:butt;stroke-linejoin:miter;stroke-opacity:1" />
    <path
       inkscape:connector-curvature="0"
       id="path4141"
       d="m 1276.0594,765.60594 -76.0347,191.73949 -23.1409,287.60927 79.3404,135.5399 76.0347,33.0586 46.2819,-13.2234 85.9522,-76.0347 49.5878,-89.258 42.9761,-178.5161 29.7527,-204.96288 -3.3059,-76.03462 -132.2341,-46.28195 -85.9522,9.91756 -56.1995,13.22342 z"
       style="fill:#de9bcc;fill-opacity:1;fill-rule:evenodd;stroke:none;stroke-width:1px;stroke-linecap:butt;stroke-linejoin:miter;stroke-opacity:1" />
    <path
       inkscape:connector-curvature="0"
       id="path4143"
       d="m 1226.4716,112.48292 c -20.9837,-42.925467 -77.4728,-36.20409 -116.8856,-30.093769 -47.242,7.628863 -94.9931,25.372549 -124.29956,65.400669 -28.61421,32.21375 -47.81585,74.34801 -86.71491,95.68932 -49.1444,42.92829 -57.25231,113.39981 -100.35957,161.16497 -41.01418,61.15048 -56.46235,134.48523 -70.76309,205.52254 -44.37557,68.66996 -22.57599,153.68764 -0.68684,225.95697 11.23183,40.74926 23.81822,86.5339 58.57975,113.59532 52.57951,14.63016 34.15804,-65.96722 42.80033,-98.57408 5.67262,-79.75178 -30.92342,-154.16887 -34.4924,-233.24507 -9.32425,-84.70072 22.13193,-173.85099 89.73894,-227.60314 35.8895,-35.48741 84.92564,-53.72897 120.93755,-88.30036 37.9369,-40.06009 76.6754,-80.99934 124.9449,-108.23053 36.0149,-29.26887 89.3824,-8.79546 126.1168,-35.18132 18.8642,-18.06284 -20.1765,-62.779695 -21.8224,-63.187864 10.4273,17.942534 -32.0638,7.937424 -7.0939,17.086344 z"
       style="opacity:0.5695793;fill:#ffee74;fill-opacity:1;fill-rule:evenodd;stroke:none;stroke-width:1px;stroke-linecap:butt;stroke-linejoin:miter;stroke-opacity:1;filter:url(#filter4184)" />
    <path
       inkscape:connector-curvature="0"
       id="path4189"
       d="m 2006.6529,597.00742 c -61.5923,-1.94568 -71.5563,63.53102 -76.2037,108.29278 -7.9942,48.42473 -38.4879,87.36483 -41.6241,138.18269 -10.9098,26.74329 -39.0705,75.52598 -58.3083,105.97095 -4.1385,46.75176 -14.7528,70.47046 -42.052,104.35726 -33.1996,21.7702 -64.6866,48.7388 -103.0114,60.6684 -46.3586,12.7514 -18.3511,86.2326 26.4026,54.235 33.0751,-9.5751 73.4594,-44.9593 86.5282,-62.6057 21.1063,-13.5315 56.2941,-20.2588 67.4349,-58.1171 21.4464,-36.4621 41.5684,-70.28541 53.0627,-113.72458 23.5676,-34.28219 37.4678,-75.66706 56.2265,-113.32977 15.282,-46.87364 40.6956,-92.46873 35.0387,-143.41939 -2.1454,-24.06711 3.0206,-87.08362 -3.1643,-70.61278 l -0.3298,-9.89776 0,0 z"
       style="opacity:0.63399999;fill:#e3c817;fill-opacity:1;fill-rule:evenodd;stroke:none;stroke-width:1px;stroke-linecap:butt;stroke-linejoin:miter;stroke-opacity:1;filter:url(#filter4262)" />
    <path
       inkscape:connector-curvature="0"
       id="path4266"
       d="m 1553.751,768.91179 c -37.0736,6.79498 -29.7723,39.97404 -41.4668,52.27893 -10.2591,40.90239 -0.2685,83.00162 -6.9502,123.99989 -19.793,31.02459 -15.8921,71.97989 -32.0716,101.78979 -9.901,39.2628 -29.5864,79.5941 -28.6222,122.4485 4.424,42.2468 -11.4362,82.6039 -11.773,124.1533 -5.6303,30.8385 9.3037,41.7586 18.2632,18.8483 15.1231,-16.3417 22.836,-24.624 34.7961,-31.9577 6.708,-18.849 14.1309,-42.2305 18.0848,-62.9506 7.3895,-14.391 14.5224,-39.5412 24.1153,-66.1952 7.7862,-20.5678 15.3449,-42.5832 18.9178,-60.2318 -9.9843,-39.8143 14.169,-56.2353 11.4764,-94.44171 15.4243,-3.632 13.794,-43.84593 8.4297,-65.01195 16.103,-35.81087 9.6855,-81.46322 18.7022,-122.08351 12.2714,-25.29351 -38.0812,-46.04331 -22.2531,-40.11274 l -4.7601,-1.25528 -4.8887,0.72178 2e-4,0 z"
       style="opacity:0.36199999;fill:#cb87b9;fill-opacity:1;fill-rule:evenodd;stroke:none;stroke-width:1px;stroke-linecap:butt;stroke-linejoin:miter;stroke-opacity:1;filter:url(#filter4311)" />
    <path
       inkscape:connector-curvature="0"
       id="path4315"
       d="m 1289.2828,762.30009 c -6.0252,25.99245 3.1098,-11.97045 -7.0471,14.51358 -30.5326,21.33118 -51.694,51.24313 -59.3122,86.35665 -6.7669,20.05412 -8.3909,26.9885 -14.4886,47.2965 -6.5391,37.83047 -18.9671,73.11751 -32.0878,108.27148 5.4015,40.6144 7.9704,83.6844 -3.9612,123.6073 -15.7186,27.6851 -7.6813,60.0324 0.085,86.7534 7.8248,18.8899 21.6931,45.3442 41.5454,71.2381 22.3278,43.2353 32.3738,-21.9993 9.2643,-37.4065 -8.4503,-41.1639 -6.1367,-85.5513 16.5512,-118.0636 -9e-4,-37.1451 14.2464,-73.8042 22.989,-111.9171 7.0158,-29.4328 0.3773,-68.93644 15.6924,-86.4344 0.4198,-11.10789 27.0021,-48.95298 29.671,-71.93834 10.6325,-12.90389 -8.4358,-5.9445 9.8705,-12.65355 3.7823,-7.84952 31.3464,-39.03732 11.0768,-61.84364 -2.5064,-7.84357 -18.865,-17.61132 -4.3838,-37.29507 -8.4068,-12.07816 -22.7132,-3.453 -35.4649,-0.48481 z"
       style="opacity:0.49500002;fill:#deaed1;fill-opacity:1;fill-rule:evenodd;stroke:none;stroke-width:1px;stroke-linecap:butt;stroke-linejoin:miter;stroke-opacity:1;filter:url(#filter4344)" />
    <g
       transform="matrix(0,-1,1,0,628.80677,2099.8068)"
       id="layer0">
      <path
         style="fill:#000000"
         inkscape:connector-curvature="0"
         id="path7"
         d="m 1376,1402 85,0 c 26.2,-1.7 57.1,-1.2 77,-7 23.8,-4.9 46.3,-12.8 67,-19 21.6,-6 46.4,-11.6 63,-21 18.6,-9.9 38,-20.9 55,-30 21.2,-7.2 38.2,-20.6 55,-31 18.2,-9.1 39,-18.6 54,-30 16.7,-11.5 35.6,-22.9 46,-39 12.7,-15.4 26.9,-31.5 38,-46 14.4,-14.5 22.9,-36.4 34,-51 11.4,-17.5 23.6,-35.6 30,-56 8.3,-19.4 16,-42.1 23,-62 7.2,-20.5 15.4,-42.6 15,-69 3.7,-24.8 6.1,-52.8 10,-76 2.8,-24.6 12.7,-45.1 17,-68 7.2,-20.1 5.1,-52.5 7,-77 -1.2,-27.6 5.4,-56.2 0,-82 -0.5,-26 -0.4,-56.5 -7,-77 -6.6,-20.8 -3.4,-54.4 -11,-74 -6.3,-21 -6.3,-51.3 -14,-71 -9.1,-18.1 -22.6,-35 -31,-54 -9.8,-17.3 -25.9,-31.6 -39,-46 -13.5,-13.4 -27.5,-29.9 -43,-42 -15.6,-11.2 -33.6,-23.6 -49,-35 -15.1,-12.6 -34.4,-23.7 -50,-36 -16.9,-9.7 -35.7,-21.3 -52,-32 -17.8,-9.6 -37.8,-20.1 -56,-30 -18.9,-7.5 -39.8,-17 -58,-26 -21.4,-5.8 -42.5,-15.2 -64,-21 -19.7,-7.5 -43.3,-14.2 -68,-17 -22.3,-4.7 -51.5,-5.9 -77,-8 -26,1.4 -56.5,-1.3 -81,1 -28.7,0.5 -54.1,5.4 -79,7 -23.4,4.7 -47.6,10.9 -67,18 -21.4,6.5 -41.3,17 -61,23 -17.7,11.1 -38.8,20.4 -54,31 -16,12.7 -32.7,26.4 -48,37 -12.8,15.8 -27.5,31.5 -40,45 -11.1,17.4 -22.1,36.8 -31,54 -11.5,16.9 -21.2,37.5 -33,53 -7,20.3 -17.7,40 -23,61 -8.1,20.1 -15.1,43.5 -21,64 -9.6,18.4 -14.7,43.8 -22,63 -18.6,9.3 -48.9,9.4 -68,17 -18.8,9 -38.1,20.1 -52,32 -16.1,12.6 -30.5,28.6 -44,42 -12.8,14.8 -23.9,34.1 -30,54 -7.4,22.1 -5.3,56.4 3,72 6.4,22.9 19.1,40.6 31,54 10.3,18.9 30.5,29.1 43,42 14.4,14.7 34.5,25 51,34 11.9,15.2 49.3,13.1 43,39 5.3,23.5 17.5,41.6 18,66 5.3,24.3 17.1,42.9 25,60 9.8,19.7 19.3,40.6 28,57 7.9,21.5 22.9,36.9 31,54 12.1,17.2 23.4,36.3 35,50 11.3,17.9 30,29.6 40,44 14.7,15.4 29.8,30.7 45,41 19.8,9.2 39,20.3 56,29 17.6,11.3 38.4,20.9 55,29 17.6,12.2 39.8,20.4 59,27 22.2,6.5 42.5,16.5 63,21 22.6,6.5 47.5,9.4 71,12 z m 111,-35 -60,0 c -18.2,-0.3 -40.1,2.1 -57,-2 -17.6,-0.5 -34.1,-3.5 -49,-9 -16.6,-2.2 -29.9,-8.4 -45,-14 -13.4,-5.3 -31.4,-9.8 -45,-15 -12.5,-6.1 -25.6,-12.5 -38,-20 -12.1,-7.1 -25.9,-12.9 -39,-20 -11.5,-7.4 -24.3,-14.1 -37,-22 -12.6,-6.2 -26.5,-14.8 -39,-22 l -29,-29 -29,-29 c -10.3,-8.7 -16.7,-21.8 -27,-33 -5.6,-12.3 -15.8,-24.6 -23,-37 -6.7,-11.2 -15.3,-22.1 -21,-37 -7.9,-10.7 -12.3,-25.7 -20,-38 -5.9,-13.2 -11.5,-27.2 -19,-40 -5.5,-13.6 -9.9,-31.7 -15,-45 -1.3,-7.1 -14,-48 6,-37 16.9,3.4 30.3,9.5 48,11 17.7,2.2 34.4,5 51,7 16.3,4.5 34.9,8.4 49,11 19,1.7 33,7.2 51,8 16.6,3.8 33.5,6.4 49,9 18.1,2.9 33.4,7.2 50,9 17.4,3.6 40.2,3.3 54,7 13,4.2 55.5,-6.5 37,3 -10.5,8.9 -16.2,22.8 -28,31 -6.9,12.2 -17,21.6 -29,29 -11.3,8.7 -14.9,27.6 -28,32 -10,9.9 -28.3,11.2 -31,28 -2.5,21 23.9,24.3 32,11 7,-13.1 21.1,-18.6 31,-28 12.4,-7.7 18.3,-24.3 30,-31 8.4,-10.6 22.3,-16.3 31,-28 6.1,-12.5 11.8,-26.4 18,-40 7.3,-12 15.1,-23.7 19,-40 6.5,-12.7 12.6,-29.2 17,-43 4.7,-14.4 11.8,-26.9 15,-43 4.6,-15.2 9.2,-30.1 11,-48 2.9,-16.5 1.5,-37.5 1,-57 -0.1,-18.6 -2.5,-38.8 -7,-53 -1.7,-17 -7.8,-30.4 -11,-48 -3.9,-14.4 -9.2,-28.7 -14,-44 -5.2,-13.8 -9.3,-29.2 -17,-42 -3.7,-15.2 -14,-27.4 -20,-40 -7.8,-11 -13.5,-24.9 -23,-36 -6.2,-12.2 -16,-22.1 -23,-35 -8.6,-10.5 -16.8,-21.9 -25,-34 -9.4,-9.7 -18.5,-23.1 -28,-32 -8.9,-10.1 -20.1,-18.4 -28,-31 -11.9,-6.7 -19.2,-19 -32,-27 -8.5,-9.8 -23.2,-14.6 -33,-26 -14.2,-14.7 -29.7,2.6 -30,17 -0.1,20.4 20.9,18.9 30,28 13.7,7.2 23,17.5 34,25 11.9,8.7 19.2,21 28,31 11.1,9.5 21.9,21.2 30,30 7.2,13.3 18.1,21.9 24,34 9.9,11.2 17.7,23 25,34 8.4,12.3 16.1,24.3 23,36 7.6,13.1 16.5,26.7 22,38 6,14.6 10.9,29.3 18,40 16.1,24.9 2.1,13.6 -9,0 -9.8,-8.3 -21.5,-16.2 -39,-20 -13.4,-4.7 -30.8,-9.8 -44,-15 -15,-4 -31.2,-7.4 -45,-14 -14.4,-4.3 -30.1,-8.1 -46,-12 -16.5,-2.7 -30.8,-8 -48,-11 -14.5,-4.7 -32.9,-8.8 -48,-12 -14.5,-4.6 -33,-5.6 -50,-10 -15.9,-1.8 -36.9,-0.4 -57,-1 -25.3,11.3 -27.3,-7.7 -20,-26 4.5,-16 10.1,-32.9 14,-47 3.5,-15.9 9.7,-29.3 14,-44 4.6,-15.5 11.1,-28.6 17,-42 6.7,-13 13.7,-25.6 20,-39 8,-11.7 16.8,-25.4 23,-37 8.4,-11.2 16.2,-23 23,-35 9.7,-10.6 19.3,-20.5 27,-33 11.1,-7.8 20.7,-17.7 32,-26 10.8,-9.1 23.8,-18.5 36,-25 12.5,-6.2 24.6,-13.7 38,-20 12.2,-7.2 28.1,-10.9 40,-18 16.4,-3.7 29.7,-9.9 45,-14 16.7,-3.3 34.5,-8 51,-9 17.7,-2.2 35.6,-3.8 54,-5 16.9,-2.7 38.8,-0.3 57,-2 20.9,0.1 38.3,2.3 56,4 20.4,-0.4 38.2,4.4 54,6 16.6,3.3 32.2,7.3 46,12 18,2.6 29.7,10.4 45,14 13.3,7 28.1,11.7 41,17 15.2,6 30.3,13.4 42,18 13.7,7.4 26.8,13.8 39,21 13.1,6.7 24.3,15 37,21 11.9,8.4 24,16 35,23 12.3,9 25.7,18.1 36,25 12,8.2 21.9,17.9 34,25 10.2,9.7 22.4,17 31,27 9.8,10.7 19.6,20.5 29,30 10.7,9.8 19.5,23.5 28,32 7.4,12.9 15.4,24.5 21,37 8.8,12.2 12.4,28.1 19,40 4.5,16.1 6,34.2 7,51 3.4,18.2 7.7,36.4 10,51 4.1,16.4 7.9,32.1 7,51 -0.5,21.6 3.9,36.8 2,57 0.2,20 1.6,41 -2,57 2.6,22.4 -0.8,41.4 -3,57 -2.8,16.8 -6.6,32.6 -12,47 -5.1,14.2 -6.8,32.1 -11,48 0.4,19.4 -2.6,35.9 -4,54 -1.7,18.2 -4.5,37.9 -10,51 -4.8,14 -9,29.3 -15,43 -4.5,14.9 -8.1,30.9 -16,43 -3.1,16 -12,26.6 -20,39 -7.1,11.9 -15.9,25.6 -23,37 -4.4,14.5 -17.3,21.2 -24,34 -11.2,8.4 -17.5,21.6 -28,30 -8.7,11.5 -20.3,19.5 -33,27 -11.1,8.1 -24.8,16.9 -38,21 -11.5,8.6 -25,14.6 -37,22 -9.7,10 -24.1,15.2 -37,22 -13.8,5.6 -26,12.9 -40,18 -10.8,9.5 -28.5,14.3 -42,19 -14.7,4.5 -30.9,7.9 -45,13 -15.9,4 -29.4,10 -46,13 -17,2.5 -34.9,4.1 -53,6 z m 365,-323 c 34.8,-13.1 -0.5,-44 -10,-57 -13.5,-17.2 -30.9,-34.2 -46,-51 -35.4,-10.2 -8.2,-37.7 5,-52 12.6,-19 27.5,-36 46,-50 32.5,-32 -18.7,-41.4 -28,-13 -15,16.3 -27.9,35.3 -43,52 -9.2,36.8 -34.8,21.6 -48,0 -12,-18.7 -30.6,-32 -46,-49 -6,-34.4 -54.5,-14.7 -33,12 20.8,13 34.9,33.3 50,48 7.4,19.1 47.2,32.7 29,55 -12.5,19.7 -27.4,36.7 -48,48 -31,37.1 29.7,40.4 31,11 15.7,-16.2 28.7,-35.2 45,-51 19.3,14.1 34.9,32.9 49,48 17.4,15.8 23.8,41.2 47,49 z M 1287,944 c -27.9,-1.7 -59.2,-2.7 -84,-8 -23.9,-4.6 -52.5,-8.5 -77,-14 -25.7,-2.9 -52.7,-8.3 -79,-12 -23.5,-4.8 -47.9,-10.2 -74,-15 -27,-2.2 -54.5,-7.1 -75,-16 -22.2,-7.1 -44.4,-17.2 -64,-28 -18.1,-10.2 -39.3,-21.4 -57,-33 -14.3,-14.6 -32.5,-26.3 -47,-42 -12.3,-17.6 -26.6,-35.7 -28,-63 -4.5,-30.1 10.9,-50.1 21,-67 15.9,-14.5 31.5,-31.4 48,-43 17.5,-12.5 38.2,-21.7 60,-29 25.7,-5.4 55.6,-7.8 84,-8 27,-1.6 57.5,-5.2 83,0 29.2,2.1 52.9,10.8 77,14 23.1,7.8 48.5,12.3 71,18 24.6,7.3 49.4,14.9 71,20 23.4,8.5 47,17.3 65,27 19.3,11.7 45,18.4 54,37 8.1,22.6 14.4,46 16,74 17.5,45.3 -25.1,39 -42,24 -21.1,-7.9 -45.5,-15.8 -67,-24 -21.7,-7.3 -46.4,-15 -71,-20 -25.5,-3.1 -50.8,-7.6 -80,-10 -28.5,4.9 -63.3,-7.3 -83,2 -24.2,26.3 8.4,49.2 35,34 27.7,3.9 63.9,0 88,3 26.3,4.9 52.1,9 74,15 24,8.2 48.8,15.7 68,24 22.6,8.2 43.9,16.8 65,24 15.3,21.6 -8.8,48.3 -12,67 -10.4,19.3 -6,53.6 -40,49 z m 424,-353 c 25.3,-3.4 29.8,-29.4 43,-42 14.7,-8.7 19.4,-46 40,-34 16.5,12.7 35.5,21.6 50,34 18.6,6.9 30.4,31.5 54,23 21.1,-24.6 -14.8,-36.5 -28,-45 -14.3,-12 -33.2,-20.9 -49,-34 -29.2,-4.5 -20.3,-29.8 -6,-46 7.1,-16.7 33.3,-28.2 21,-55 -23.2,-6.8 -29.8,25 -42,37 -6.4,16 -19.3,48.3 -40,21 -17,-9.2 -29.2,-24.9 -46,-37 -11.8,-11.3 -34.9,-35.1 -45,-4 0.6,28.4 31.7,27.7 40,44 14.7,14.7 31.7,25.5 48,36 11,20.6 -13.9,36.6 -23,51 -6,13.7 -38.8,31.1 -17,51 z" />
    </g>
  </g>
</svg>
